{"title":"The Avengers (2012) + bonus 6' interviste XviD Ita Eng AC3 Sub I","uid":8455645,"size":2660860436,"categoryP":"video","categoryS":"movies","magnet":"?xt=urn:btih:d38fa4195a82bd665b47ebfc9b1b0e705187c5d2&amp;dn=The+Avengers+%282012%29+%2B+bonus+6%27+interviste+XviD+Ita+Eng+AC3+Sub+I&amp;tr=udp%3A%2F%2Ftracker.openbittorrent.com%3A80&amp;tr=udp%3A%2F%2Fopen.demonii.com%3A1337&amp;tr=udp%3A%2F%2Ftracker.coppersurfer.tk%3A6969&amp;tr=udp%3A%2F%2Fexodus.desync.com%3A6969","seeders":1,"leechers":0,"uploader":null,"files":7,"time":1368059063,"description":"\nGeneral\nComplete name : F:The Avengers (2012)The Avengers (2012).avi\nFormat : AVI\nFormat/Info : Audio Video Interleave\nFormat profile : OpenDML\nFile size : 2.41 GiB\nDuration : 2h 22mn\nOverall bit rate : 2 413 Kbps\nWriting application : VirtualDubMod 1.5.10.2 (build 2540/release)\nWriting library : VirtualDubMod build 2540/release\n\nVideo\nID : 0\nFormat : MPEG-4 Visual\nFormat profile : Simple@L3\nFormat settings, BVOP : Yes\nFormat settings, QPel : No\nFormat settings, GMC : No warppoints\nFormat settings, Matrix : Default (H.263)\nCodec ID : XVID\nCodec ID/Hint : XviD\nDuration : 2h 22mn\nBit rate : 1 500 Kbps\nWidth : 720 pixels\nHeight : 400 pixels\nDisplay aspect ratio : 16:9\nFrame rate : 23.976 fps\nColor space : YUV\nChroma subsampling : 4:2:0\nBit depth : 8 bits\nScan type : Progressive\nBits/(Pixel*Frame) : 0.217\nStream size : 1.50 GiB (62%)\n\nAudio #1\nID : 1\nFormat : AC-3\nFormat/Info : Audio Coding 3\nMode extension : CM (complete main)\nCodec ID : 2000\nDuration : 2h 22mn\nBit rate mode : Constant\nBit rate : 448 Kbps\nChannel(s) : 6 channels\nChannel positions : Front: L C R, Side: L R, LFE\nSampling rate : 48.0 KHz\nBit depth : 16 bits\nStream size : 458 MiB (19%)\nAlignment : Split accross interleaves\nInterleave, duration : 42 ms (1.00 video frame)\nInterleave, preload duration : 500 ms\n\nAudio #2\nID : 2\nFormat : AC-3\nFormat/Info : Audio Coding 3\nMode extension : CM (complete main)\nCodec ID : 2000\nDuration : 2h 22mn\nBit rate mode : Constant\nBit rate : 448 Kbps\nChannel(s) : 6 channels\nChannel positions : Front: L C R, Side: L R, LFE\nSampling rate : 48.0 KHz\nBit depth : 16 bits\nStream size : 458 MiB (19%)\nAlignment : Split accross interleaves\nInterleave, duration : 42 ms (1.00 video frame)\nInterleave, preload duration : 500 ms","torrent":{"xt":"urn:btih:d38fa4195a82bd665b47ebfc9b1b0e705187c5d2","amp;dn":"The+Avengers+%282012%29+%2B+bonus+6%27+interviste+XviD+Ita+Eng+AC3+Sub+I","amp;tr":["udp%3A%2F%2Ftracker.openbittorrent.com%3A80","udp%3A%2F%2Fopen.demonii.com%3A1337","udp%3A%2F%2Ftracker.coppersurfer.tk%3A6969","udp%3A%2F%2Fexodus.desync.com%3A6969"],"infoHash":"d38fa4195a82bd665b47ebfc9b1b0e705187c5d2","infoHashBuffer":{"type":"Buffer","data":[211,143,164,25,90,130,189,102,91,71,235,252,155,27,14,112,81,135,197,210]},"announce":[],"urlList":[]}}